# xmcd
#
# Track frame offsets:
#	150
#	12045
#	24695
#	42320
#	56232
#	72252
#	86740
#	99975
#	113772
#	133627
#	147280
#	162662
#
# Disc length: 2300 seconds
#
# Revision: 1
# Processed by: cddbd v1.5.1PL0 Copyright (c) Steve Scherf et al.
# Submitted via: audiograbber 1.83.01
#
DISCID=a508fa0c
DTITLE=Tom Astor - Country Club
DYEAR=1997
DGENRE=Country
TTITLE0=Wer verliert, gewinnt irgendwann
TTITLE1=Wer hat ein Herz, das nie bricht
TTITLE2=Lucille                     
TTITLE3=Fuzzy, das war der Grösste
TTITLE4=Ich möcht so gern Dave Dudley hör'n
TTITLE5=Disco Westen Rodeo
TTITLE6=Die Ballade von John Wayne
TTITLE7=Tom Dooley
TTITLE8=Der Feigling des Jahrhunderts
TTITLE9=Hör' mal zu, Herr Minister
TTITLE10=Hier geht mein Weg zu Ende
TTITLE11=Adios Amigo
EXTD=
EXTT0=
EXTT1=
EXTT2=
EXTT3=
EXTT4=
EXTT5=
EXTT6=
EXTT7=
EXTT8=
EXTT9=
EXTT10=
EXTT11=
PLAYORDER=
